<svg height="512" viewBox="0 0 64 64" width="512" xmlns="http://www.w3.org/2000/svg"><path d="m59 9a2 2 0 0 1 0 4h-8a2 2 0 0 1 0-4h1.18a3 3 0 1 1 5.64 0z" fill="#e6e7e8"/><path d="m27 38h-15a4 4 0 0 1 -4-4v-16h7l3 8h30a8 8 0 0 1 8 8v2a2.006 2.006 0 0 1 -2 2z" fill="#5aaae7"/><path d="m39 33-1.54 5-2.46 8h-8v-8-5z" fill="#3d9ae2"/><path d="m36.85 26h-9.85v-6h8l1.23 4z" fill="#3d9ae2"/><path d="m25 57a2 2 0 0 1 0 4h-8a2 2 0 0 1 0-4h1.18a3 3 0 1 1 5.64 0z" fill="#e6e7e8"/><path d="m36.85 26h-9.85v-2h9.23z" fill="#1e81ce"/><path d="m25 33h2v5h-2z" fill="#1e81ce"/><path d="m48 25h-10.412l-1.632-5.294a1 1 0 0 0 -.956-.706h-8a1 1 0 0 0 -1 1v5h-7.307l-2.756-7.351a1 1 0 0 0 -.937-.649h-7a1 1 0 0 0 -1 1v16a5.006 5.006 0 0 0 5 5h14v7a1 1 0 0 0 1 1h8a1 1 0 0 0 .956-.706l2.244-7.294h15.8a3 3 0 0 0 3-3v-2a9.011 9.011 0 0 0 -9-9zm-20-4h6.262l1.233 4h-7.495zm27 15a1 1 0 0 1 -1 1h-15.185l1.141-3.706-1.912-.588-3.783 12.294h-6.261v-12h-2v4h-14a3 3 0 0 1 -3-3v-15h5.307l2.756 7.351a1 1 0 0 0 .937.649h30a7.008 7.008 0 0 1 7 7z"/><path d="m47 29h4v2h-4z"/><path d="m41 29h2v2h-2z"/><path d="m37 29h2v2h-2z"/><path d="m33 29h2v2h-2z"/><path d="m29 29h2v2h-2z"/><path d="m25 29h2v2h-2z"/><path d="m21 29h2v2h-2z"/><path d="m25 56a4 4 0 0 0 -8 0 3 3 0 0 0 0 6h8a3 3 0 0 0 0-6zm0 4h-8a1 1 0 0 1 0-2h1.184a1 1 0 0 0 .942-1.334 2 2 0 1 1 3.748 0 1 1 0 0 0 .942 1.334h1.184a1 1 0 0 1 0 2z"/><path d="m6 59h6v2h-6z"/><path d="m2 59h2v2h-2z"/><path d="m8 55h4v2h-4z"/><path d="m59 8a4 4 0 0 0 -8 0 3 3 0 0 0 0 6h8a3 3 0 0 0 0-6zm0 4h-8a1 1 0 0 1 0-2h1.184a1 1 0 0 0 .942-1.334 2 2 0 1 1 3.748 0 1 1 0 0 0 .942 1.334h1.184a1 1 0 0 1 0 2z"/><path d="m40 11h6v2h-6z"/><path d="m36 11h2v2h-2z"/><path d="m42 7h4v2h-4z"/></svg>