<?xml version="1.0" encoding="iso-8859-1"?>
<!-- Generator: Adobe Illustrator 19.0.0, SVG Export Plug-In . SVG Version: 6.00 Build 0)  -->
<svg version="1.1" id="Capa_1" xmlns="http://www.w3.org/2000/svg" xmlns:xlink="http://www.w3.org/1999/xlink" x="0px" y="0px"
	 viewBox="0 0 498.125 498.125" style="enable-background:new 0 0 498.125 498.125;" xml:space="preserve">
<polygon style="fill:#F1594C;" points="457.709,367.726 233.892,323.84 200.246,218.514 188.544,179.017 347.995,15.177 
	386.029,136.594 "/>
<path style="fill:#849DA9;" d="M233.892,323.84l-105.326,32.183c-27.794,8.777-57.051,0-76.069-19.017
	c-8.777-8.777-14.629-19.017-19.017-30.72c-13.166-39.497,10.24-83.383,49.737-95.086l103.863-32.183
	c2.926,11.703,8.777,24.869,13.166,39.497C216.338,266.789,233.892,323.84,233.892,323.84z"/>
<path style="fill:#A5C3D1;" d="M233.892,323.84l-105.326,32.183c-27.794,8.777-57.051,0-76.069-19.017
	c38.034-42.423,87.771-83.383,147.749-118.491C216.338,266.789,233.892,323.84,233.892,323.84z"/>
<path style="fill:#F58570;" d="M457.709,367.726L233.892,323.84l-32.183-105.326c32.183-19.017,67.291-36.571,103.863-52.663
	c26.331-11.703,54.126-20.48,80.457-29.257L457.709,367.726z"/>
<path style="fill:#A5C3D1;" d="M463.561,160c11.703,35.109-8.777,73.143-43.886,84.846l-40.96-128.731
	C413.824,104.411,453.321,123.429,463.561,160z"/>
<path style="fill:#F6E272;" d="M220.726,473.051c-10.24,13.166-29.257,14.629-40.96,4.389
	c-45.349-38.034-55.589-99.474-58.514-118.491c2.926,0,5.851-1.463,7.314-1.463l48.274-14.629c0,1.463,1.463,4.389,1.463,7.314
	c0,1.463,4.389,55.589,38.034,83.383C229.504,442.331,230.966,459.886,220.726,473.051z"/>
<path d="M454.784,382.354l-220.891-43.886l-100.937,30.72c-8.777,4.389-17.554,5.851-26.331,5.851
	c14.629,0-64.366,7.314-86.309-64.366C5.686,262.4,32.018,211.2,80.292,196.571l100.937-30.72L337.755,4.937
	c2.926-4.389,8.777-5.851,13.166-4.389s8.777,4.389,10.24,10.24c0,1.463,111.177,355.474,111.177,356.937
	C472.338,377.966,463.561,383.817,454.784,382.354z M233.892,309.211c1.463,0,1.463,0,2.926,0l200.411,39.497L340.681,42.971
	L198.784,189.257c-1.463,1.463-4.389,2.926-5.851,4.389L89.069,225.829c-32.183,10.24-51.2,45.349-40.96,77.531
	c10.24,33.646,45.349,49.737,77.531,40.96l103.863-32.183C230.966,309.211,232.429,309.211,233.892,309.211z"/>
<path d="M170.989,487.68c-51.2-40.96-61.44-108.251-64.366-127.269c-1.463-7.314,4.389-14.629,11.703-16.091
	c1.463,0,4.389,0,5.851-1.463l48.274-14.629c7.314-2.926,16.091,1.463,17.554,8.777c1.463,2.926,1.463,7.314,1.463,10.24
	c0,0,4.389,49.737,33.646,73.143c19.017,14.629,21.943,42.423,7.314,61.44C216.338,500.846,190.006,503.771,170.989,487.68z
	 M137.344,369.189c4.389,23.406,17.554,68.754,52.663,96.549c5.851,4.389,14.629,4.389,20.48-1.463
	c4.389-5.851,4.389-14.629-2.926-20.48c-29.257-23.406-39.497-62.903-42.423-83.383L137.344,369.189z"/>
<path d="M419.675,259.474c-5.851,0-11.703-4.389-14.629-10.24l-40.96-128.731c-1.463-4.389-1.463-7.314,1.463-11.703
	s4.389-5.851,8.777-7.314c43.886-13.166,89.234,10.24,103.863,54.126c13.166,43.886-10.24,89.234-54.126,103.863
	C422.601,259.474,421.138,259.474,419.675,259.474z M397.732,126.354l30.72,98.011c19.017-11.703,29.257-36.571,21.943-59.977
	C443.081,140.983,421.138,126.354,397.732,126.354z"/>
<path d="M233.892,338.469c-5.851,0-11.703-4.389-14.629-10.24l-45.349-144.823c-2.926-7.314,1.463-16.091,10.24-19.017
	c7.314-2.926,16.091,1.463,19.017,10.24l45.349,144.823c2.926,7.314-1.463,16.091-10.24,19.017
	C236.818,338.469,235.355,338.469,233.892,338.469z"/>
<path d="M175.378,396.983c-4.389-7.314-1.463-16.091,5.851-20.48l21.943-11.703c7.314-4.389,16.091-1.463,20.48,5.851
	c4.389,7.314,1.463,16.091-5.851,20.48l-21.943,11.703C188.544,407.223,179.766,404.297,175.378,396.983z"/>
<g>
</g>
<g>
</g>
<g>
</g>
<g>
</g>
<g>
</g>
<g>
</g>
<g>
</g>
<g>
</g>
<g>
</g>
<g>
</g>
<g>
</g>
<g>
</g>
<g>
</g>
<g>
</g>
<g>
</g>
</svg>
