<?xml version="1.0" encoding="iso-8859-1"?>
<!-- Generator: Adobe Illustrator 19.0.0, SVG Export Plug-In . SVG Version: 6.00 Build 0)  -->
<svg version="1.1" id="Capa_1" xmlns="http://www.w3.org/2000/svg" xmlns:xlink="http://www.w3.org/1999/xlink" x="0px" y="0px"
	 viewBox="0 0 496.485 496.485" style="enable-background:new 0 0 496.485 496.485;" xml:space="preserve">
<path style="fill:#E1E6E9;" d="M331.249,7.758H46.545c-21.721,0-38.788,17.067-38.788,38.788v403.394
	c0,21.721,17.067,38.788,38.788,38.788h284.703c21.721,0,38.788-17.067,38.788-38.788V46.545
	C370.036,24.824,352.194,7.758,331.249,7.758z"/>
<path style="fill:#193651;" d="M331.249,496.485H46.545C20.945,496.485,0,475.539,0,449.939V46.545C0,20.945,20.945,0,46.545,0
	h284.703c25.6,0,46.545,20.945,46.545,46.545v403.394C377.794,475.539,356.849,496.485,331.249,496.485z M46.545,15.515
	c-17.067,0-31.03,13.964-31.03,31.03v403.394c0,17.067,13.964,31.03,31.03,31.03h284.703c17.067,0,31.03-13.964,31.03-31.03V46.545
	c0-17.067-13.964-31.03-31.03-31.03H46.545z"/>
<rect x="38.788" y="62.061" style="fill:#FFFFFF;" width="300.218" height="356.849"/>
<g>
	<circle style="fill:#193651;" cx="188.509" cy="449.939" r="15.515"/>
	<rect x="138.861" y="31.03" style="fill:#193651;" width="15.515" height="15.515"/>
	<rect x="180.752" y="31.03" style="fill:#193651;" width="15.515" height="15.515"/>
	<rect x="222.642" y="31.03" style="fill:#193651;" width="15.515" height="15.515"/>
</g>
<rect x="272.291" y="96.194" style="fill:#4FBF9F;" width="216.436" height="224.97"/>
<path style="fill:#193651;" d="M488.727,328.921H272.291c-4.655,0-7.758-3.103-7.758-7.758V96.194c0-4.655,3.103-7.758,7.758-7.758
	h216.436c4.655,0,7.758,3.103,7.758,7.758v224.97C496.485,325.818,493.382,328.921,488.727,328.921z M280.048,313.406H480.97
	V103.952H280.048V313.406z"/>
<rect x="303.135" y="127.69" style="fill:#FFFFFF;" width="154.376" height="162.909"/>
<g>
	<rect x="329.697" y="152.048" style="fill:#193651;" width="101.624" height="15.515"/>
	<rect x="329.697" y="184.63" style="fill:#193651;" width="101.624" height="15.515"/>
	<rect x="329.697" y="217.212" style="fill:#193651;" width="101.624" height="15.515"/>
	<rect x="329.697" y="250.57" style="fill:#193651;" width="101.624" height="15.515"/>
</g>
<rect x="146.618" y="151.273" style="fill:#FDBF5E;" width="216.436" height="224.97"/>
<path style="fill:#193651;" d="M363.055,384H146.618c-4.655,0-7.758-3.103-7.758-7.758v-224.97c0-4.655,3.103-7.758,7.758-7.758
	h216.436c4.655,0,7.758,3.103,7.758,7.758v224.97C370.812,380.897,367.709,384,363.055,384z M154.376,368.485h200.921V159.03
	H154.376V368.485z"/>
<rect x="177.641" y="182.784" style="fill:#FFFFFF;" width="154.376" height="162.909"/>
<g>
	<rect x="204.024" y="207.127" style="fill:#193651;" width="101.624" height="15.515"/>
	<rect x="204.024" y="239.709" style="fill:#193651;" width="101.624" height="15.515"/>
	<rect x="204.024" y="272.291" style="fill:#193651;" width="101.624" height="15.515"/>
	<rect x="204.024" y="305.648" style="fill:#193651;" width="101.624" height="15.515"/>
</g>
<g>
</g>
<g>
</g>
<g>
</g>
<g>
</g>
<g>
</g>
<g>
</g>
<g>
</g>
<g>
</g>
<g>
</g>
<g>
</g>
<g>
</g>
<g>
</g>
<g>
</g>
<g>
</g>
<g>
</g>
</svg>
