<?xml version="1.0" encoding="iso-8859-1"?>
<!-- Generator: Adobe Illustrator 19.0.0, SVG Export Plug-In . SVG Version: 6.00 Build 0)  -->
<svg version="1.1" id="Capa_1" xmlns="http://www.w3.org/2000/svg" xmlns:xlink="http://www.w3.org/1999/xlink" x="0px" y="0px"
	 viewBox="0 0 497.371 497.371" style="enable-background:new 0 0 497.371 497.371;" xml:space="preserve">
<rect x="19.654" y="14.629" style="fill:#A5C3D1;" width="457.874" height="76.069"/>
<rect x="19.654" y="14.629" style="fill:#849DA9;" width="457.874" height="35.109"/>
<rect x="50.374" y="90.697" style="fill:#FFFFFF;" width="397.897" height="285.257"/>
<path d="M478.992,105.326H19.654c-8.777,0-14.629-5.851-14.629-14.629V14.629C5.026,5.851,10.877,0,19.654,0h457.874
	c8.777,0,14.629,5.851,14.629,14.629v76.069C493.62,99.474,486.306,105.326,478.992,105.326z M34.283,76.069H462.9V29.257H34.283
	V76.069z"/>
<path d="M448.272,392.046H50.374c-8.777,0-14.629-5.851-14.629-14.629V90.697c0-8.777,5.851-14.629,14.629-14.629h397.897
	c8.777,0,14.629,5.851,14.629,14.629v285.257C462.9,384.731,457.049,392.046,448.272,392.046z M65.003,362.789h368.64V105.326
	H65.003V362.789z"/>
<path d="M249.323,444.709c-8.777,0-14.629-5.851-14.629-14.629v-52.663c0-8.777,5.851-14.629,14.629-14.629
	s14.629,5.851,14.629,14.629v52.663C263.952,437.394,258.1,444.709,249.323,444.709z"/>
<path d="M249.323,497.371c-21.943,0-40.96-19.017-40.96-40.96c0-21.943,19.017-40.96,40.96-40.96s40.96,19.017,40.96,40.96
	C290.283,478.354,271.266,497.371,249.323,497.371z M249.323,444.709c-5.851,0-11.703,5.851-11.703,11.703
	c0,5.851,5.851,11.703,11.703,11.703s11.703-5.851,11.703-11.703C261.026,450.56,255.174,444.709,249.323,444.709z"/>
<polygon points="142.534,313.051 117.666,298.423 198.123,162.377 272.729,257.463 359.037,177.006 379.517,197.486 268.34,299.886 
	201.049,213.577 "/>
<circle style="fill:#A5C3D1;" cx="129.369" cy="304.274" r="27.794"/>
<path d="M129.369,346.697c-23.406,0-42.423-19.017-42.423-42.423c0-23.406,19.017-42.423,42.423-42.423s42.423,19.017,42.423,42.423
	C171.792,327.68,152.774,346.697,129.369,346.697z M129.369,291.109c-7.314,0-13.166,5.851-13.166,13.166
	c0,7.314,5.851,13.166,13.166,13.166s13.166-5.851,13.166-13.166C142.534,296.96,136.683,291.109,129.369,291.109z"/>
<circle style="fill:#77C587;" cx="199.586" cy="187.246" r="27.794"/>
<path d="M199.586,229.669c-23.406,0-42.423-19.017-42.423-42.423s19.017-42.423,42.423-42.423s42.423,19.017,42.423,42.423
	S222.992,229.669,199.586,229.669z M199.586,174.08c-7.314,0-13.166,5.851-13.166,13.166s5.851,13.166,13.166,13.166
	s13.166-5.851,13.166-13.166C212.752,179.931,206.9,174.08,199.586,174.08z"/>
<circle style="fill:#F6E272;" cx="271.266" cy="280.869" r="27.794"/>
<path d="M271.266,323.291c-23.406,0-42.423-19.017-42.423-42.423c0-23.406,19.017-42.423,42.423-42.423s42.423,19.017,42.423,42.423
	C313.689,304.274,294.672,323.291,271.266,323.291z M271.266,267.703c-7.314,0-13.166,5.851-13.166,13.166
	c0,7.314,5.851,13.166,13.166,13.166c7.314,0,13.166-5.851,13.166-13.166C284.432,275.017,278.58,267.703,271.266,267.703z"/>
<circle style="fill:#F58570;" cx="369.277" cy="187.246" r="27.794"/>
<path d="M369.277,229.669c-23.406,0-42.423-19.017-42.423-42.423s19.017-42.423,42.423-42.423c23.406,0,42.423,19.017,42.423,42.423
	S392.683,229.669,369.277,229.669z M369.277,174.08c-7.314,0-13.166,5.851-13.166,13.166s5.851,13.166,13.166,13.166
	c7.314,0,13.166-5.851,13.166-13.166C382.443,179.931,376.592,174.08,369.277,174.08z"/>
<g>
</g>
<g>
</g>
<g>
</g>
<g>
</g>
<g>
</g>
<g>
</g>
<g>
</g>
<g>
</g>
<g>
</g>
<g>
</g>
<g>
</g>
<g>
</g>
<g>
</g>
<g>
</g>
<g>
</g>
</svg>
