<?xml version="1.0" encoding="iso-8859-1"?>
<!-- Generator: Adobe Illustrator 19.0.0, SVG Export Plug-In . SVG Version: 6.00 Build 0)  -->
<svg version="1.1" id="Capa_1" xmlns="http://www.w3.org/2000/svg" xmlns:xlink="http://www.w3.org/1999/xlink" x="0px" y="0px"
	 viewBox="0 0 497.371 497.371" style="enable-background:new 0 0 497.371 497.371;" xml:space="preserve">
<rect x="51.837" y="83.383" style="fill:#FFFFFF;" width="393.509" height="209.189"/>
<rect x="25.506" y="14.629" style="fill:#77C587;" width="446.171" height="68.754"/>
<rect x="25.506" y="14.629" style="fill:#08A650;" width="446.171" height="27.794"/>
<path d="M473.14,98.011H25.506c-8.777,0-14.629-5.851-14.629-14.629V14.629C10.877,5.851,16.729,0,25.506,0h446.171
	c8.777,0,14.629,5.851,14.629,14.629v68.754C487.769,90.697,480.454,98.011,473.14,98.011z M40.134,68.754h416.914V29.257H40.134
	V68.754z"/>
<rect x="25.506" y="292.571" style="fill:#A5C3D1;" width="446.171" height="68.754"/>
<rect x="25.506" y="292.571" style="fill:#849DA9;" width="446.171" height="36.571"/>
<path d="M473.14,375.954H25.506c-8.777,0-14.629-5.851-14.629-14.629v-68.754c0-8.777,5.851-14.629,14.629-14.629h446.171
	c8.777,0,14.629,5.851,14.629,14.629v68.754C487.769,368.64,480.454,375.954,473.14,375.954z M40.134,346.697h416.914V307.2H40.134
	V346.697z"/>
<path d="M446.809,307.2H51.837c-8.777,0-14.629-5.851-14.629-14.629V83.383c0-8.777,5.851-14.629,14.629-14.629h394.971
	c8.777,0,14.629,5.851,14.629,14.629v209.189C461.437,299.886,454.123,307.2,446.809,307.2z M66.466,277.943H432.18V98.011H66.466
	V277.943z"/>
<circle style="fill:#F6E272;" cx="247.86" cy="235.52" r="80.457"/>
<path style="fill:#FFCA19;" d="M318.077,197.486c-11.703-7.314-24.869-10.24-39.497-10.24c-43.886,0-80.457,36.571-80.457,80.457
	c0,13.166,2.926,26.331,10.24,38.034c-24.869-13.166-40.96-39.497-40.96-70.217c0-43.886,36.571-80.457,80.457-80.457
	C278.58,155.063,304.912,172.617,318.077,197.486z"/>
<path style="fill:#F15E75;" d="M313.689,334.994h-7.314l-59.977,40.96l-59.977-40.96c-39.497,0-71.68,29.257-71.68,64.366v70.217
	c0,7.314,5.851,13.166,14.629,13.166h242.834c8.777,0,14.629-5.851,14.629-13.166V399.36
	C385.369,364.251,353.186,334.994,313.689,334.994z"/>
<path style="fill:#EF3956;" d="M385.369,397.897c-36.571-21.943-95.086-27.794-152.137-8.777
	c-54.126,17.554-96.549,51.2-115.566,89.234c-2.926-2.926-4.389-5.851-4.389-8.777V399.36c0-35.109,32.183-64.366,71.68-64.366
	l59.977,40.96l59.977-40.96h7.314C353.186,334.994,383.906,362.789,385.369,397.897z"/>
<path style="fill:#F1594C;" d="M247.86,374.491l-2.926,1.463l-48.274-32.183c1.463,0,2.926,0,4.389,0L247.86,374.491z"/>
<path d="M370.74,497.371H127.906c-16.091,0-29.257-13.166-29.257-27.794V399.36c0-43.886,38.034-78.994,86.309-78.994l0,0
	c2.926,0,5.851,1.463,8.777,2.926l52.663,35.109l52.663-35.109c2.926-1.463,5.851-2.926,8.777-2.926h7.314
	c48.274,0,86.309,35.109,86.309,78.994v70.217C399.997,484.206,386.832,497.371,370.74,497.371z M127.906,468.114H370.74l0,0V399.36
	c0-27.794-26.331-49.737-57.051-49.737h-2.926l-57.051,38.034c-4.389,2.926-11.703,2.926-16.091,0l-57.051-38.034
	c-29.257,1.463-52.663,23.406-52.663,49.737L127.906,468.114L127.906,468.114z"/>
<path d="M247.86,332.069c-52.663,0-95.086-42.423-95.086-95.086s42.423-95.086,95.086-95.086s95.086,42.423,95.086,95.086
	S300.523,332.069,247.86,332.069z M247.86,169.691c-36.571,0-65.829,29.257-65.829,65.829s29.257,65.829,65.829,65.829
	s65.829-29.257,65.829-65.829S284.432,169.691,247.86,169.691z"/>
<g>
</g>
<g>
</g>
<g>
</g>
<g>
</g>
<g>
</g>
<g>
</g>
<g>
</g>
<g>
</g>
<g>
</g>
<g>
</g>
<g>
</g>
<g>
</g>
<g>
</g>
<g>
</g>
<g>
</g>
</svg>
